<?xml version="1.0" standalone="no"?>
<!DOCTYPE svg PUBLIC "-//W3C//DTD SVG 20010904//EN"
 "http://www.w3.org/TR/2001/REC-SVG-20010904/DTD/svg10.dtd">
<svg version="1.0" xmlns="http://www.w3.org/2000/svg"
 width="250px" height="228px" viewBox="680 0 1680 1536"
 preserveAspectRatio="xMidYMid meet">
<metadata>
Created by potrace 1.16, written by Peter Selinger 2001-2019
</metadata>
<g transform="translate(0.000000,1536.000000) scale(0.100000,-0.100000)" stroke="none">

<path fill="#3b22a3" d="M14015 14459 c-437 -33 -818 -91 -1133 -174 -596 -157 -1159 -389
-1632 -673 -144 -86 -458 -297 -575 -386 -293 -222 -700 -600 -932 -866 -275
-316 -496 -626 -709 -997 -115 -199 -325 -633 -399 -823 -111 -285 -226 -676
-284 -965 -12 -55 -28 -131 -36 -170 -74 -333 -116 -1079 -85 -1510 31 -423
56 -592 159 -1060 42 -191 176 -618 261 -830 183 -457 512 -1050 762 -1375 11
-14 52 -68 90 -120 273 -366 758 -849 1142 -1136 401 -300 853 -572 1191 -718
55 -24 156 -68 225 -99 511 -225 1117 -375 1785 -444 241 -24 927 -24 1170 0
318 32 649 94 960 178 147 40 181 50 355 105 144 45 380 134 480 181 52 25
127 58 167 74 264 105 728 376 1045 608 17 13 97 -65 1128 -1096 844 -845
1127 -1122 1181 -1158 408 -269 925 -121 1152 330 41 82 77 241 77 340 0 77
-29 222 -59 301 -57 147 -82 173 -1223 1315 l-1080 1081 25 26 c40 44 256 337
358 487 143 209 287 459 398 690 215 445 387 948 490 1430 63 296 79 399 106
704 30 331 37 766 16 991 -66 706 -134 1041 -330 1620 -206 607 -524 1194
-952 1755 -564 740 -1378 1394 -2248 1807 -424 202 -931 371 -1384 462 -282
57 -612 100 -892 116 -198 11 -612 11 -770 -1z m784 -1229 c262 -20 535 -62
721 -110 41 -11 125 -31 185 -46 306 -73 796 -273 1130 -462 415 -234 755
-492 1100 -837 535 -534 926 -1173 1190 -1945 177 -518 274 -1278 236 -1835
-58 -829 -248 -1471 -636 -2156 -195 -342 -457 -694 -722 -970 -123 -127 -408
-386 -528 -480 -131 -102 -434 -309 -546 -374 -358 -205 -646 -335 -1009 -456
-256 -85 -598 -157 -1015 -215 -159 -22 -855 -15 -1065 11 -143 17 -514 88
-680 130 -109 28 -482 152 -570 190 -30 13 -120 52 -200 86 -255 108 -527 264
-800 457 -271 192 -423 317 -644 532 -474 461 -867 1041 -1127 1662 -68 162
-172 483 -204 625 -14 65 -37 161 -50 213 -84 328 -132 929 -106 1308 13 190
43 445 67 582 174 980 609 1843 1297 2573 114 121 316 308 419 388 31 24 98
78 150 120 195 159 603 410 871 536 622 293 1157 431 1867 483 142 10 470 5
669 -10z"/>

<path fill="#6c63ff" d="M15613 11380 c-14 -6 -26 -24 -33 -52 -24 -96 -51 -178 -58 -179 -55
-3 -110 -17 -172 -40 -41 -16 -78 -29 -83 -29 -5 0 -45 29 -90 65 -45 36 -91
65 -102 65 -12 0 -59 -33 -106 -72 -46 -40 -104 -89 -128 -109 l-43 -36 23
-64 c12 -35 35 -82 51 -103 15 -22 28 -46 28 -53 0 -7 -26 -65 -57 -128 -57
-115 -58 -115 -93 -115 -34 0 -135 -15 -172 -26 -27 -8 -38 -59 -45 -209 l-6
-141 64 -24 c35 -13 87 -32 116 -42 36 -13 54 -26 58 -41 4 -12 20 -66 38
-120 l31 -97 -34 -48 c-78 -109 -100 -145 -100 -165 0 -25 56 -99 147 -195
l70 -74 39 17 c21 9 67 34 102 55 35 22 69 40 77 40 24 0 234 -122 239 -139 3
-9 10 -59 16 -111 6 -52 15 -99 19 -103 15 -15 84 -25 216 -32 111 -6 133 -5
143 8 7 8 30 62 50 119 l37 103 60 18 c33 10 90 30 128 44 l67 26 38 -32 c20
-17 63 -49 96 -71 58 -40 59 -40 88 -22 17 9 79 59 139 110 106 90 107 93 99
123 -5 18 -27 62 -48 98 -53 88 -56 103 -33 132 24 31 91 160 91 176 0 20 30
30 109 37 139 12 135 6 152 214 14 172 17 166 -111 207 -47 15 -91 33 -97 39
-7 6 -28 56 -46 111 -18 55 -37 107 -40 115 -5 10 16 48 58 108 36 51 65 101
65 110 0 31 -179 237 -213 246 -14 3 -56 -13 -120 -47 l-99 -51 -33 19 c-19
11 -64 38 -102 59 -115 66 -113 64 -113 99 0 49 -27 169 -42 183 -8 8 -51 15
-108 18 -52 3 -120 7 -150 10 -30 3 -65 2 -77 -4z m240 -629 c176 -49 314
-203 368 -411 69 -266 -86 -535 -358 -623 -180 -58 -327 -37 -478 69 -143 99
-215 225 -240 415 -20 153 67 347 201 453 153 120 315 151 507 97z"/>

<path fill="#6c63ff" d="M12943 9799 c-18 -5 -37 -17 -42 -27 -5 -9 -30 -112 -56 -227 -26
-115 -50 -216 -54 -223 -4 -7 -70 -35 -148 -61 -131 -46 -237 -92 -326 -142
l-38 -22 -52 36 c-151 102 -348 217 -372 217 -20 0 -50 -23 -118 -87 -258
-245 -387 -394 -387 -447 0 -32 54 -130 162 -295 37 -57 68 -110 68 -118 0 -7
-15 -44 -34 -81 -47 -94 -109 -242 -140 -339 -15 -45 -33 -86 -39 -91 -7 -5
-39 -14 -72 -20 -209 -39 -382 -88 -396 -114 -30 -56 -37 -564 -10 -684 l12
-50 112 -32 c62 -18 164 -45 227 -61 134 -35 131 -32 176 -171 18 -53 62 -155
98 -228 36 -72 66 -138 66 -146 0 -7 -15 -36 -33 -62 -57 -83 -188 -303 -198
-333 -8 -23 -7 -36 6 -60 9 -17 97 -113 195 -214 175 -177 278 -267 307 -267
23 0 172 84 370 210 l53 33 117 -59 c65 -32 181 -81 257 -108 l139 -51 19 -80
c10 -44 29 -123 43 -175 13 -52 29 -114 35 -137 6 -24 21 -55 33 -69 l23 -26
239 -6 c132 -2 289 -1 348 3 125 8 127 10 151 115 7 36 30 124 50 196 20 73
36 143 36 157 0 23 10 28 128 67 126 42 201 75 317 140 18 10 41 20 51 21 23
4 77 -10 84 -21 17 -27 341 -210 372 -210 24 0 184 146 356 325 115 121 152
165 152 185 0 14 -32 79 -71 145 -39 66 -80 138 -91 159 -11 21 -28 48 -38 58
-10 11 -24 33 -31 50 -10 26 -9 34 15 76 51 88 105 210 141 319 20 59 44 115
53 124 9 9 91 35 182 58 233 59 269 70 280 90 16 31 30 219 30 416 0 212 -10
292 -39 316 -25 20 -172 61 -321 89 -63 12 -123 29 -132 37 -9 8 -25 38 -34
67 -33 100 -116 302 -150 363 -19 34 -34 66 -34 72 0 7 31 58 68 114 81 121
172 287 172 314 0 35 -151 207 -360 408 -95 92 -136 125 -156 125 -6 0 -45
-22 -85 -48 -126 -82 -327 -202 -339 -202 -6 0 -42 18 -80 40 -53 31 -274 117
-402 157 -23 7 -49 92 -103 338 -24 106 -42 142 -78 155 -38 13 -639 12 -684
-1z m508 -1255 c323 -61 590 -230 765 -482 94 -136 128 -202 168 -334 85 -274
66 -549 -59 -813 -67 -143 -106 -203 -194 -297 -187 -199 -396 -317 -626 -353
-160 -25 -398 -17 -510 18 -238 74 -345 137 -513 301 -139 135 -211 249 -286
448 -143 384 -40 842 261 1159 109 114 193 177 318 238 227 112 473 154 676
115z"/>

<path fill="#6c63ff" d="M16711 9497 c-19 -10 -28 -30 -46 -102 -13 -49 -26 -107 -30 -128 -3
-23 -13 -40 -23 -44 -9 -3 -75 -30 -147 -60 l-129 -55 -41 21 c-22 12 -78 41
-124 66 -63 33 -88 42 -101 35 -31 -17 -176 -158 -218 -213 -25 -32 -42 -65
-42 -81 0 -16 25 -64 65 -124 36 -53 65 -105 65 -115 0 -10 -17 -48 -39 -86
-37 -66 -52 -103 -65 -163 -8 -36 -41 -52 -146 -73 -146 -28 -147 -29 -154
-83 -4 -37 -2 -343 3 -374 2 -15 41 -28 147 -49 60 -11 116 -25 124 -29 9 -5
26 -45 39 -90 13 -44 39 -106 57 -137 l34 -56 -19 -31 c-10 -17 -42 -69 -70
-115 -28 -46 -51 -96 -51 -110 0 -36 255 -291 292 -291 14 0 71 31 131 72
l107 71 108 -50 c59 -28 122 -56 140 -63 41 -16 43 -20 81 -165 17 -66 35
-122 39 -126 7 -8 217 -14 343 -11 l76 2 33 113 c49 168 50 171 101 186 24 7
83 33 131 57 48 24 96 44 105 44 10 0 63 -29 117 -65 57 -38 110 -65 125 -65
20 0 57 32 163 139 76 76 138 144 138 152 0 8 -32 68 -71 133 l-71 118 15 37
c8 20 32 77 52 126 20 50 40 99 45 111 6 16 24 23 76 33 38 7 98 23 134 34
l65 22 9 136 c5 74 5 170 2 211 -9 90 -7 89 -170 122 l-109 22 -19 55 c-10 29
-39 95 -64 146 -51 104 -53 87 26 207 64 97 73 121 58 149 -22 42 -83 109
-168 184 -111 98 -99 99 -328 -33 l-32 -19 -78 41 c-42 23 -102 49 -132 59
-30 10 -60 21 -65 26 -6 4 -24 63 -40 131 -17 70 -38 131 -47 140 -16 16 -40
18 -200 18 -126 0 -191 -4 -207 -13z m369 -742 c112 -34 202 -87 277 -162 148
-146 205 -289 204 -513 -1 -210 -147 -437 -349 -543 -112 -59 -167 -70 -311
-65 -148 6 -216 25 -324 90 -114 68 -197 158 -250 270 -51 107 -56 124 -67
233 -9 93 1 168 36 274 59 175 201 325 374 395 119 48 292 57 410 21z"/>
</g>
</svg>